<svg id="Layer_1" data-name="Layer 1" xmlns="http://www.w3.org/2000/svg" viewBox="0 0 826.81 399.77"><defs><style>.cls-1{fill:#37393c;}.cls-2{fill:#a3c3ca;}.cls-3{fill:#477268;}</style></defs><title>abv-logo</title><path class="cls-1" d="M326.93,233.24l-2.51-10.58-2.51-10.59-8-33.8H179l-8.08,34.31L101.87,505,95.19,533.4H204l4.41-22.63,5.12-26.53h61.2l9.53,49.16H398.16ZM225.61,400l17.55-115.36h2L261.72,400Z" transform="translate(-95.19 -178.27)"/><path class="cls-1" d="M559.92,376.4q-13.24-16.86-30.19-24.13a62.81,62.81,0,0,0-6.68-2.46l-.5-1.5A56.77,56.77,0,0,0,528,345a77.92,77.92,0,0,0,24.38-25.28q11.28-18.59,11.28-47.15,0-30.63-11-49.41t-27.84-28.59a105.25,105.25,0,0,0-35.51-12.79,13,13,0,0,0-1.36-.25,231.35,231.35,0,0,0-37.62-3.26H326.93v33.3L403,532.24l.3,1.16h59.54a166.53,166.53,0,0,0,41.89-5.27,98.45,98.45,0,0,0,36.11-17.56,86.46,86.46,0,0,0,20.82-23.72v-.05c1.6-2.66,3.11-5.42,4.51-8.33,6.32-13.24,9.53-29.54,9.53-48.9Q575.72,396.47,559.92,376.4ZM427.75,268.05h18.06c6.67,0,12.19,1.81,16.55,5.52s6.52,9.18,6.52,16.55q0,13-6.27,18.81c-4.21,3.81-9.78,5.77-16.8,5.77H427.75Zm37.87,167.84c-4.86,4.46-11.13,6.72-18.81,6.72H427.75V392h19.06a28.92,28.92,0,0,1,18.06,6.17c5.32,4.16,8,10.68,8,19.61C472.89,425.35,470.44,431.42,465.62,435.89Z" transform="translate(-95.19 -178.27)"/><path class="cls-1" d="M796.42,178.27l-7.62,31.4-1,4.11L715.67,510.57l-1.56,6.32-4,16.51H572.71l-9.43-39.78a105.69,105.69,0,0,0,7.43-13c6.67-13.85,10-31.05,10-51.06,0-23.13-5.67-42.09-16.91-56.28-9.08-11.54-19.56-20-31.25-25.28a82.51,82.51,0,0,0,24.08-25.68c8-13.15,12-29.85,12-49.76,0-21.22-4-38.68-11.74-52s-17.75-23.47-29.64-30.39a109,109,0,0,0-30.2-11.94H612.84L627.29,279,629.14,292l15.8,110.5h1.51l22-158.15,1.45-10.64,7.68-55.42Z" transform="translate(-95.19 -178.27)"/><path class="cls-2" d="M155.64,574.25a4.67,4.67,0,0,1-1.78,2.55,5.72,5.72,0,0,1-3.46,1,6.74,6.74,0,0,1-2.12-.36,5.38,5.38,0,0,1-2-1.2,6.42,6.42,0,0,1-1.5-2.21,8.92,8.92,0,0,1-.58-3.41,8.31,8.31,0,0,1,.88-4,7.26,7.26,0,0,1,2.3-2.52,9.31,9.31,0,0,1,3.23-1.34,17.9,17.9,0,0,1,3.66-.38h.9V562a3.37,3.37,0,0,0-.79-2.48,2.9,2.9,0,0,0-2.1-.77,4.84,4.84,0,0,0-2.37.59,6.62,6.62,0,0,0-1.83,1.49L145,556.46a9.78,9.78,0,0,1,3.59-2.66,10.51,10.51,0,0,1,4.26-.95,10.21,10.21,0,0,1,4.06.72,6.43,6.43,0,0,1,2.71,2.13,8.8,8.8,0,0,1,1.49,3.4,20.67,20.67,0,0,1,.46,4.63v13.45h-5.83v-2.93Zm-.23-7.36h-1.26a8.1,8.1,0,0,0-1.49.14,3.22,3.22,0,0,0-1.26.51,2.78,2.78,0,0,0-.86,1,3.38,3.38,0,0,0-.32,1.56,3,3,0,0,0,.61,2,1.94,1.94,0,0,0,1.47.66,2.5,2.5,0,0,0,1.42-.41,2.91,2.91,0,0,0,1-1.06,5.16,5.16,0,0,0,.54-1.49,7.25,7.25,0,0,0,.18-1.65Z" transform="translate(-95.19 -178.27)"/><path class="cls-2" d="M215.86,577.18h-7.18l-3-13.54h-.09l-2.93,13.54h-7l-5.23-23.61h7.22l2.3,14.77h.09l2.71-14.77h6.05l2.8,14.77h.09l2.3-14.77h7.14Z" transform="translate(-95.19 -178.27)"/><path class="cls-2" d="M255.86,567.16a6.78,6.78,0,0,0,.25,1.88,5.78,5.78,0,0,0,.65,1.53,3.19,3.19,0,0,0,1,1,2.39,2.39,0,0,0,1.31.38,2.47,2.47,0,0,0,1.9-.77,5.55,5.55,0,0,0,1.13-1.8l5.19,2.93a10.26,10.26,0,0,1-3.27,4.16,8.63,8.63,0,0,1-5.22,1.53,9.24,9.24,0,0,1-3.86-.81,8.82,8.82,0,0,1-3.12-2.42,11.69,11.69,0,0,1-2.07-3.94,17.84,17.84,0,0,1-.75-5.42,18.76,18.76,0,0,1,.7-5.26,12.2,12.2,0,0,1,2-4,9.06,9.06,0,0,1,3-2.55,9.22,9.22,0,0,1,8,0,7.9,7.9,0,0,1,2.82,2.6,11.24,11.24,0,0,1,1.61,3.93,23.5,23.5,0,0,1,.5,5v2Zm5.33-4.6a7.49,7.49,0,0,0-.59-3.16,2,2,0,0,0-1.94-1.27,1.93,1.93,0,0,0-1.25.43,3.8,3.8,0,0,0-.87,1.09,5.07,5.07,0,0,0-.55,1.44,6.69,6.69,0,0,0-.18,1.47Z" transform="translate(-95.19 -178.27)"/><path class="cls-2" d="M309,560.21a7.07,7.07,0,0,0-1.76-1.31,4.4,4.4,0,0,0-2.07-.5,2.13,2.13,0,0,0-1.47.55,1.88,1.88,0,0,0-.61,1.49,1.48,1.48,0,0,0,.66,1.33,10.55,10.55,0,0,0,2.46,1,11.36,11.36,0,0,1,2.07.86,6.8,6.8,0,0,1,1.85,1.4,7.07,7.07,0,0,1,1.34,2,7.17,7.17,0,0,1,.52,2.82,8.19,8.19,0,0,1-.77,3.7,7.44,7.44,0,0,1-1.94,2.49,7.74,7.74,0,0,1-2.65,1.39,9.21,9.21,0,0,1-2.82.45,12.4,12.4,0,0,1-4.54-.85,11.14,11.14,0,0,1-3.76-2.39l3.52-4.52a8.7,8.7,0,0,0,2.05,1.63,4.83,4.83,0,0,0,2.42.63,2,2,0,0,0,1.55-.59,2.1,2.1,0,0,0,.57-1.53,1.75,1.75,0,0,0-.9-1.65,15.82,15.82,0,0,0-2.71-1.11,13.91,13.91,0,0,1-1.9-.79,5.77,5.77,0,0,1-1.69-1.28,6.7,6.7,0,0,1-1.22-2,7.36,7.36,0,0,1-.47-2.82,7.76,7.76,0,0,1,.72-3.45,7.39,7.39,0,0,1,1.87-2.44,7.84,7.84,0,0,1,2.58-1.45,9.12,9.12,0,0,1,2.86-.47,11.41,11.41,0,0,1,4.15.77,11.65,11.65,0,0,1,3.53,2.12Z" transform="translate(-95.19 -178.27)"/><path class="cls-2" d="M360.4,565.4a18.15,18.15,0,0,1-.67,5.08,12.71,12.71,0,0,1-1.92,4,9,9,0,0,1-3.07,2.62,8.88,8.88,0,0,1-4.13.94,8.74,8.74,0,0,1-4.11-.94,9.57,9.57,0,0,1-3.09-2.62,12,12,0,0,1-2-4,17.78,17.78,0,0,1-.69-5.08,18.07,18.07,0,0,1,.69-5.1,12.13,12.13,0,0,1,1.94-4,9.06,9.06,0,0,1,3.09-2.62,9,9,0,0,1,11.33,2.62,12.72,12.72,0,0,1,1.92,4A18.45,18.45,0,0,1,360.4,565.4Zm-6.77,0a16.23,16.23,0,0,0-.18-2.5,9.07,9.07,0,0,0-.54-2,3.75,3.75,0,0,0-.92-1.38,2,2,0,0,0-1.38-.49,1.94,1.94,0,0,0-1.33.49,3.64,3.64,0,0,0-.93,1.38,9.07,9.07,0,0,0-.54,2,17.52,17.52,0,0,0,0,5,9.17,9.17,0,0,0,.54,2,3.6,3.6,0,0,0,.93,1.37,2,2,0,0,0,1.33.5,2,2,0,0,0,1.38-.5,3.7,3.7,0,0,0,.92-1.37,9.17,9.17,0,0,0,.54-2A16.27,16.27,0,0,0,353.63,565.35Z" transform="translate(-95.19 -178.27)"/><path class="cls-2" d="M397.64,553.57v3.34h.1a5.75,5.75,0,0,1,1.89-2.95,5.49,5.49,0,0,1,3.71-1.24,5.13,5.13,0,0,1,3.76,1.22,6.55,6.55,0,0,1,1.74,3h.09a7.08,7.08,0,0,1,.84-1.55,6,6,0,0,1,3-2.28,6.21,6.21,0,0,1,2.19-.36,5.92,5.92,0,0,1,3.29.83,5.41,5.41,0,0,1,1.94,2.24,10.8,10.8,0,0,1,.93,3.2,28.57,28.57,0,0,1,.25,3.75v14.44h-7V562.7a7.1,7.1,0,0,0-.45-2.63,1.69,1.69,0,0,0-1.72-1.12,2.21,2.21,0,0,0-2,1.19,6.24,6.24,0,0,0-.7,3.14v13.9h-7V562.7a7.33,7.33,0,0,0-.43-2.63A1.64,1.64,0,0,0,400.4,559a2.21,2.21,0,0,0-2,1.19,6.14,6.14,0,0,0-.7,3.14v13.9h-6.95V553.57Z" transform="translate(-95.19 -178.27)"/><path class="cls-2" d="M458.28,567.16a6.78,6.78,0,0,0,.25,1.88,5.78,5.78,0,0,0,.65,1.53,3.19,3.19,0,0,0,1,1,2.4,2.4,0,0,0,1.32.38,2.46,2.46,0,0,0,1.89-.77,5.55,5.55,0,0,0,1.13-1.8l5.19,2.93a10.26,10.26,0,0,1-3.27,4.16,8.63,8.63,0,0,1-5.22,1.53,9.24,9.24,0,0,1-3.86-.81,8.79,8.79,0,0,1-3.11-2.42,11.53,11.53,0,0,1-2.08-3.94,17.84,17.84,0,0,1-.75-5.42,18.76,18.76,0,0,1,.7-5.26,12.2,12.2,0,0,1,2-4,9.06,9.06,0,0,1,3-2.55,9.22,9.22,0,0,1,8,0,7.9,7.9,0,0,1,2.82,2.6,11.24,11.24,0,0,1,1.61,3.93,23.5,23.5,0,0,1,.5,5v2Zm5.33-4.6a7.49,7.49,0,0,0-.59-3.16,2,2,0,0,0-1.94-1.27,1.93,1.93,0,0,0-1.25.43,3.8,3.8,0,0,0-.87,1.09,5.07,5.07,0,0,0-.55,1.44,6.69,6.69,0,0,0-.18,1.47Z" transform="translate(-95.19 -178.27)"/><path class="cls-2" d="M535.61,543.06h7.08V556h.14a4.17,4.17,0,0,1,1.69-2.2,5,5,0,0,1,3-.91,6.12,6.12,0,0,1,3.35.93,7.69,7.69,0,0,1,2.45,2.55,12.58,12.58,0,0,1,1.48,3.86,21.82,21.82,0,0,1,.5,4.85,23,23,0,0,1-.52,5,14.69,14.69,0,0,1-1.51,4.09,8.09,8.09,0,0,1-2.45,2.75,5.6,5.6,0,0,1-3.3,1,4.66,4.66,0,0,1-3.29-1,6.6,6.6,0,0,1-1.66-2.51h-.09v2.84h-6.86Zm6.68,22.29a16.38,16.38,0,0,0,.18,2.49,8.68,8.68,0,0,0,.56,2.06,3.87,3.87,0,0,0,1,1.37,2,2,0,0,0,1.33.5,2,2,0,0,0,1.38-.5,3.87,3.87,0,0,0,.95-1.37,7.84,7.84,0,0,0,.54-2.06,19.53,19.53,0,0,0,0-5,7.71,7.71,0,0,0-.54-2,3.92,3.92,0,0,0-.95-1.38,2,2,0,0,0-1.38-.49,2,2,0,0,0-1.33.49,3.92,3.92,0,0,0-1,1.38,8.55,8.55,0,0,0-.56,2A16.23,16.23,0,0,0,542.29,565.35Z" transform="translate(-95.19 -178.27)"/><path class="cls-2" d="M591,567.16a7.17,7.17,0,0,0,.25,1.88,6.14,6.14,0,0,0,.66,1.53,3.19,3.19,0,0,0,1,1,2.39,2.39,0,0,0,1.31.38,2.48,2.48,0,0,0,1.9-.77,5.55,5.55,0,0,0,1.13-1.8l5.19,2.93a10.35,10.35,0,0,1-3.27,4.16A8.65,8.65,0,0,1,594,578a9.24,9.24,0,0,1-3.86-.81,8.82,8.82,0,0,1-3.12-2.42,11.69,11.69,0,0,1-2.07-3.94,17.84,17.84,0,0,1-.75-5.42,18.76,18.76,0,0,1,.7-5.26,12,12,0,0,1,2-4,9.06,9.06,0,0,1,3-2.55,8.4,8.4,0,0,1,3.88-.9,8.48,8.48,0,0,1,4.15.94,7.9,7.9,0,0,1,2.82,2.6,11.24,11.24,0,0,1,1.61,3.93,23.52,23.52,0,0,1,.49,5v2Zm5.33-4.6a7.5,7.5,0,0,0-.58-3.16,2,2,0,0,0-1.94-1.27,1.93,1.93,0,0,0-1.25.43,3.8,3.8,0,0,0-.87,1.09,5.07,5.07,0,0,0-.55,1.44,6.69,6.69,0,0,0-.18,1.47Z" transform="translate(-95.19 -178.27)"/><path class="cls-2" d="M638.58,567.16a6.78,6.78,0,0,0,.25,1.88,5.79,5.79,0,0,0,.66,1.53,3.07,3.07,0,0,0,1,1,2.61,2.61,0,0,0,3.21-.39,5.55,5.55,0,0,0,1.13-1.8l5.19,2.93a10.18,10.18,0,0,1-3.27,4.16,8.63,8.63,0,0,1-5.22,1.53,9.24,9.24,0,0,1-3.86-.81,8.79,8.79,0,0,1-3.11-2.42,11.34,11.34,0,0,1-2.07-3.94,17.84,17.84,0,0,1-.75-5.42,18.4,18.4,0,0,1,.7-5.26,12,12,0,0,1,2-4,9,9,0,0,1,3-2.55,8.43,8.43,0,0,1,3.88-.9,8.53,8.53,0,0,1,4.16.94,8.07,8.07,0,0,1,2.82,2.6,11.24,11.24,0,0,1,1.6,3.93,23.5,23.5,0,0,1,.5,5v2Zm5.33-4.6a7.49,7.49,0,0,0-.59-3.16,2,2,0,0,0-1.94-1.27,1.91,1.91,0,0,0-1.24.43,3.67,3.67,0,0,0-.88,1.09,4.77,4.77,0,0,0-.54,1.44,6.18,6.18,0,0,0-.19,1.47Z" transform="translate(-95.19 -178.27)"/><path class="cls-2" d="M680.7,553.57h6.86v4h.05q1.26-4.69,4.73-4.7l.59,0a3.89,3.89,0,0,1,.54.12l-.45,7.08-.7-.15a4,4,0,0,0-.83-.07,2.76,2.76,0,0,0-1.59.47,4.29,4.29,0,0,0-1.15,1.24,6.58,6.58,0,0,0-.72,1.81,9.38,9.38,0,0,0-.25,2.12v11.69H680.7Z" transform="translate(-95.19 -178.27)"/><path class="cls-2" d="M769.72,577.18H761.1L755,553.57h7.45l3.15,16.16h.19l3-16.16h7.17Z" transform="translate(-95.19 -178.27)"/><path class="cls-2" d="M816.89,577.18v-3.34h-.09a6.51,6.51,0,0,1-2.08,3A5.55,5.55,0,0,1,811,578a5.18,5.18,0,0,1-5.15-3.07,10.23,10.23,0,0,1-.9-3.2,30.48,30.48,0,0,1-.22-3.75V553.57h7.08V568a10.91,10.91,0,0,0,.09,1.44,4.48,4.48,0,0,0,.32,1.18,2,2,0,0,0,.66.81,1.71,1.71,0,0,0,1.06.32,2.25,2.25,0,0,0,2-1.2,6,6,0,0,0,.72-3.14V553.57h7.09v23.61Z" transform="translate(-95.19 -178.27)"/><path class="cls-2" d="M861,567.16a7.17,7.17,0,0,0,.25,1.88,6.14,6.14,0,0,0,.66,1.53,3.19,3.19,0,0,0,1,1,2.39,2.39,0,0,0,1.31.38,2.48,2.48,0,0,0,1.9-.77,5.55,5.55,0,0,0,1.13-1.8l5.19,2.93a10.35,10.35,0,0,1-3.27,4.16,8.65,8.65,0,0,1-5.22,1.53,9.24,9.24,0,0,1-3.86-.81,8.82,8.82,0,0,1-3.12-2.42,11.69,11.69,0,0,1-2.07-3.94,17.84,17.84,0,0,1-.75-5.42,18.76,18.76,0,0,1,.7-5.26,12,12,0,0,1,2-4,9.06,9.06,0,0,1,3-2.55,8.4,8.4,0,0,1,3.88-.9,8.48,8.48,0,0,1,4.15.94,7.9,7.9,0,0,1,2.82,2.6,11.24,11.24,0,0,1,1.61,3.93,23.52,23.52,0,0,1,.49,5v2Zm5.33-4.6a7.5,7.5,0,0,0-.58-3.16,2,2,0,0,0-1.94-1.27,1.93,1.93,0,0,0-1.25.43,3.8,3.8,0,0,0-.87,1.09,5.07,5.07,0,0,0-.55,1.44,6.69,6.69,0,0,0-.18,1.47Z" transform="translate(-95.19 -178.27)"/><path class="cls-3" d="M916.1,397.51l-2,2.46a27.25,27.25,0,0,0-5.72,20.17l.35,3.06A27.43,27.43,0,0,1,895.44,450l-2.71,1.61a27.44,27.44,0,0,0-12.59,16.7l-.8,3.06a27.61,27.61,0,0,1-22.12,20.16l-3.06.5a27.36,27.36,0,0,0-17.86,11l-1.81,2.51a27.54,27.54,0,0,1-27.88,10.83l-3.06-.65a27.46,27.46,0,0,0-20.62,3.86l-2.61,1.66a27.46,27.46,0,0,1-29.94,0l-2.61-1.66a27.34,27.34,0,0,0-20.57-3.86l-3.06.65a24.33,24.33,0,0,1-5,.5l1.55-6.32,72.13-296.79a27.32,27.32,0,0,1,15.35,7.32l2.26,2.16a27.28,27.28,0,0,0,19.51,7.57l3.11-.1a27.6,27.6,0,0,1,25.48,15.8l1.3,2.81a27.47,27.47,0,0,0,15.5,14.1l2.91,1.05a27.47,27.47,0,0,1,18.06,23.93l.2,3.11a27.55,27.55,0,0,0,9.33,18.76l2.36,2a27.62,27.62,0,0,1,8.22,28.79l-.95,3a27.69,27.69,0,0,0,2,20.87l1.45,2.76A27.52,27.52,0,0,1,916.1,397.51Z" transform="translate(-95.19 -178.27)"/></svg>